<?xml version="1.0" encoding="UTF-8"?>
<svg xmlns="http://www.w3.org/2000/svg" xmlns:xlink="http://www.w3.org/1999/xlink" width="28pt" height="28pt" viewBox="0 0 28 28" version="1.1">
<defs>
<clipPath id="clip1">
  <path d="M 3 3 L 18 3 L 18 17 L 3 17 Z M 3 3 "/>
</clipPath>
<clipPath id="clip2">
  <path d="M 10.027344 16.292969 C 6.152344 16.292969 3 13.140625 3 9.265625 L 3 3.917969 C 3 3.410156 3.410156 3 3.917969 3 C 4.421875 3 4.832031 3.410156 4.832031 3.917969 L 4.832031 9.265625 C 4.832031 12.128906 7.164063 14.457031 10.027344 14.457031 C 12.890625 14.457031 15.222656 12.128906 15.222656 9.265625 L 15.222656 3.917969 C 15.222656 3.410156 15.628906 3 16.136719 3 C 16.644531 3 17.054688 3.410156 17.054688 3.917969 L 17.054688 9.265625 C 17.054688 13.140625 13.902344 16.292969 10.027344 16.292969 "/>
</clipPath>
<clipPath id="clip3">
  <path d="M 9 14 L 23 14 L 23 25 L 9 25 Z M 9 14 "/>
</clipPath>
<clipPath id="clip4">
  <path d="M 15.632813 24.226563 C 12.019531 24.226563 9.082031 21.285156 9.082031 17.675781 L 9.082031 15.566406 C 9.082031 15.058594 9.492188 14.648438 9.996094 14.648438 C 10.503906 14.648438 10.914063 15.058594 10.914063 15.566406 L 10.914063 17.675781 C 10.914063 20.277344 13.03125 22.394531 15.632813 22.394531 C 18.234375 22.394531 20.355469 20.277344 20.355469 17.675781 L 20.355469 15.566406 C 20.355469 15.058594 20.765625 14.648438 21.269531 14.648438 C 21.777344 14.648438 22.1875 15.058594 22.1875 15.566406 L 22.1875 17.675781 C 22.1875 21.285156 19.246094 24.226563 15.632813 24.226563 "/>
</clipPath>
<clipPath id="clip5">
  <path d="M 18 9 L 25 9 L 25 16 L 18 16 Z M 18 9 "/>
</clipPath>
<clipPath id="clip6">
  <path d="M 21.199219 11.328125 C 20.535156 11.328125 19.996094 11.867188 19.996094 12.53125 C 19.996094 13.191406 20.535156 13.734375 21.199219 13.734375 C 21.863281 13.734375 22.402344 13.191406 22.402344 12.53125 C 22.402344 11.867188 21.863281 11.328125 21.199219 11.328125 M 21.199219 15.566406 C 19.523438 15.566406 18.164063 14.207031 18.164063 12.53125 C 18.164063 10.855469 19.523438 9.492188 21.199219 9.492188 C 22.871094 9.492188 24.234375 10.855469 24.234375 12.53125 C 24.234375 14.207031 22.871094 15.566406 21.199219 15.566406 "/>
</clipPath>
<clipPath id="clip7">
  <path d="M 3 3 L 6 3 L 6 5 L 3 5 Z M 3 3 "/>
</clipPath>
<clipPath id="clip8">
  <path d="M 4.949219 4.832031 L 3.917969 4.832031 C 3.410156 4.832031 3 4.421875 3 3.917969 C 3 3.410156 3.410156 3 3.917969 3 L 4.949219 3 C 5.453125 3 5.863281 3.410156 5.863281 3.917969 C 5.863281 4.421875 5.453125 4.832031 4.949219 4.832031 "/>
</clipPath>
<clipPath id="clip9">
  <path d="M 3 3 L 6 3 L 6 5 L 3 5 Z M 3 3 "/>
</clipPath>
<clipPath id="clip10">
  <path d="M 3.917969 3 C 3.410156 3 3 3.410156 3 3.917969 C 3 4.421875 3.410156 4.832031 3.917969 4.832031 L 4.949219 4.832031 C 5.453125 4.832031 5.863281 4.421875 5.863281 3.917969 C 5.863281 3.410156 5.453125 3 4.949219 3 Z M 3.917969 3 "/>
</clipPath>
<clipPath id="clip12">
  <path d="M 0.917969 0 C 0.410156 0 0 0.410156 0 0.917969 C 0 1.421875 0.410156 1.832031 0.917969 1.832031 L 1.949219 1.832031 C 2.453125 1.832031 2.863281 1.421875 2.863281 0.917969 C 2.863281 0.410156 2.453125 0 1.949219 0 Z M 0.917969 0 "/>
</clipPath>
<clipPath id="clip11">
  <rect width="3" height="2"/>
</clipPath>
<g id="surface7" clip-path="url(#clip11)">
<g clip-path="url(#clip12)" clip-rule="evenodd">
<rect x="0" y="0" width="3" height="2" style="fill:rgb(100%,100%,100%);fill-opacity:1;stroke:none;"/>
<rect x="0" y="0" width="3" height="2" style="fill:rgb(100%,100%,100%);fill-opacity:1;stroke:none;"/>
</g>
</g>
<clipPath id="clip13">
  <path d="M 14 3 L 18 3 L 18 5 L 14 5 Z M 14 3 "/>
</clipPath>
<clipPath id="clip14">
  <path d="M 16.136719 4.832031 L 15.105469 4.832031 C 14.597656 4.832031 14.191406 4.421875 14.191406 3.917969 C 14.191406 3.410156 14.597656 3 15.105469 3 L 16.136719 3 C 16.644531 3 17.054688 3.410156 17.054688 3.917969 C 17.054688 4.421875 16.644531 4.832031 16.136719 4.832031 "/>
</clipPath>
<clipPath id="clip15">
  <path d="M 14 3 L 18 3 L 18 5 L 14 5 Z M 14 3 "/>
</clipPath>
<clipPath id="clip16">
  <path d="M 15.105469 3 C 14.597656 3 14.191406 3.410156 14.191406 3.917969 C 14.191406 4.421875 14.597656 4.832031 15.105469 4.832031 L 16.136719 4.832031 C 16.644531 4.832031 17.054688 4.421875 17.054688 3.917969 C 17.054688 3.410156 16.644531 3 16.136719 3 Z M 15.105469 3 "/>
</clipPath>
<clipPath id="clip18">
  <path d="M 1.105469 0 C 0.597656 0 0.191406 0.410156 0.191406 0.917969 C 0.191406 1.421875 0.597656 1.832031 1.105469 1.832031 L 2.136719 1.832031 C 2.644531 1.832031 3.054688 1.421875 3.054688 0.917969 C 3.054688 0.410156 2.644531 0 2.136719 0 Z M 1.105469 0 "/>
</clipPath>
<clipPath id="clip17">
  <rect width="4" height="2"/>
</clipPath>
<g id="surface6" clip-path="url(#clip17)">
<g clip-path="url(#clip18)" clip-rule="evenodd">
<rect x="0" y="0" width="4" height="2" style="fill:rgb(100%,100%,100%);fill-opacity:1;stroke:none;"/>
<rect x="0" y="0" width="4" height="2" style="fill:rgb(100%,100%,100%);fill-opacity:1;stroke:none;"/>
</g>
</g>
</defs>
<g id="surface1">
<g clip-path="url(#clip1)" clip-rule="nonzero">
<g clip-path="url(#clip2)" clip-rule="evenodd">
<path style=" stroke:none;fill-rule:nonzero;fill:rgb(100%,100%,100%);fill-opacity:1;" d="M -2 21.292969 L 22.054688 21.292969 L 22.054688 -2 L -2 -2 Z M -2 21.292969 "/>
</g>
</g>
<g clip-path="url(#clip3)" clip-rule="nonzero">
<g clip-path="url(#clip4)" clip-rule="evenodd">
<path style=" stroke:none;fill-rule:nonzero;fill:rgb(100%,100%,100%);fill-opacity:1;" d="M 4.082031 29.226563 L 27.1875 29.226563 L 27.1875 9.648438 L 4.082031 9.648438 Z M 4.082031 29.226563 "/>
</g>
</g>
<g clip-path="url(#clip5)" clip-rule="nonzero">
<g clip-path="url(#clip6)" clip-rule="evenodd">
<path style=" stroke:none;fill-rule:nonzero;fill:rgb(100%,100%,100%);fill-opacity:1;" d="M 13.164063 20.566406 L 29.234375 20.566406 L 29.234375 4.492188 L 13.164063 4.492188 Z M 13.164063 20.566406 "/>
</g>
</g>
<g clip-path="url(#clip7)" clip-rule="nonzero">
<g clip-path="url(#clip8)" clip-rule="evenodd">
<path style=" stroke:none;fill-rule:nonzero;fill:rgb(100%,100%,100%);fill-opacity:1;" d="M -2 9.832031 L 10.863281 9.832031 L 10.863281 -2 L -2 -2 Z M -2 9.832031 "/>
</g>
</g>
<g clip-path="url(#clip9)" clip-rule="nonzero">
<g clip-path="url(#clip10)" clip-rule="evenodd">
<use xlink:href="#surface7" transform="matrix(1,0,0,1,3,3)"/>
</g>
</g>
<g clip-path="url(#clip13)" clip-rule="nonzero">
<g clip-path="url(#clip14)" clip-rule="evenodd">
<path style=" stroke:none;fill-rule:nonzero;fill:rgb(100%,100%,100%);fill-opacity:1;" d="M 9.191406 9.832031 L 22.054688 9.832031 L 22.054688 -2 L 9.191406 -2 Z M 9.191406 9.832031 "/>
</g>
</g>
<g clip-path="url(#clip15)" clip-rule="nonzero">
<g clip-path="url(#clip16)" clip-rule="evenodd">
<use xlink:href="#surface6" transform="matrix(1,0,0,1,14,3)"/>
</g>
</g>
</g>
</svg>
