<?xml version="1.0" encoding="UTF-8"?>
<svg xmlns="http://www.w3.org/2000/svg" xmlns:xlink="http://www.w3.org/1999/xlink" width="31pt" height="31pt" viewBox="0 0 31 31" version="1.1">
<defs>
<clipPath id="clip1">
  <path d="M 4 5 L 26 5 L 26 25 L 4 25 Z M 4 5 "/>
</clipPath>
<clipPath id="clip2">
  <path d="M 6.460938 9.6875 L 10.847656 9.6875 L 12.773438 7.507813 L 17.449219 7.507813 L 19.371094 9.6875 L 23.757813 9.6875 L 23.757813 23.25 L 6.460938 23.25 Z M 6.703125 24.945313 L 23.515625 24.945313 C 24.542969 24.945313 25.378906 24.078125 25.378906 23.007813 L 25.378906 9.929688 C 25.378906 8.859375 24.542969 7.992188 23.515625 7.992188 L 20.078125 7.992188 L 18.152344 5.8125 L 12.066406 5.8125 L 10.144531 7.992188 L 6.703125 7.992188 C 5.675781 7.992188 4.84375 8.859375 4.84375 9.929688 L 4.84375 23.007813 C 4.84375 24.078125 5.675781 24.945313 6.703125 24.945313 Z M 6.703125 24.945313 "/>
</clipPath>
<clipPath id="clip3">
  <path d="M 10 11 L 21 11 L 21 22 L 10 22 Z M 10 11 "/>
</clipPath>
<clipPath id="clip4">
  <path d="M 15.109375 19.980469 C 13.238281 19.980469 11.714844 18.40625 11.714844 16.46875 C 11.714844 14.53125 13.238281 12.957031 15.109375 12.957031 C 16.984375 12.957031 18.503906 14.53125 18.503906 16.46875 C 18.503906 18.40625 16.984375 19.980469 15.109375 19.980469 M 15.109375 11.261719 C 12.347656 11.261719 10.097656 13.597656 10.097656 16.46875 C 10.097656 19.339844 12.347656 21.675781 15.109375 21.675781 C 17.875 21.675781 20.125 19.339844 20.125 16.46875 C 20.125 13.597656 17.875 11.261719 15.109375 11.261719 "/>
</clipPath>
</defs>
<g id="surface1">
<g clip-path="url(#clip1)" clip-rule="nonzero">
<g clip-path="url(#clip2)" clip-rule="evenodd">
<path style=" stroke:none;fill-rule:nonzero;fill:rgb(100%,100%,100%);fill-opacity:1;" d="M -0.15625 29.945313 L 30.378906 29.945313 L 30.378906 0.8125 L -0.15625 0.8125 Z M -0.15625 29.945313 "/>
</g>
</g>
<g clip-path="url(#clip3)" clip-rule="nonzero">
<g clip-path="url(#clip4)" clip-rule="evenodd">
<path style=" stroke:none;fill-rule:nonzero;fill:rgb(100%,100%,100%);fill-opacity:1;" d="M 5.097656 26.675781 L 25.125 26.675781 L 25.125 6.261719 L 5.097656 6.261719 Z M 5.097656 26.675781 "/>
</g>
</g>
</g>
</svg>
