<?xml version="1.0" encoding="UTF-8"?>
<svg xmlns="http://www.w3.org/2000/svg" xmlns:xlink="http://www.w3.org/1999/xlink" width="49pt" height="32pt" viewBox="0 0 49 32" version="1.1">
<defs>
<clipPath id="clip1">
  <path d="M 7 10 L 43 10 L 43 23 L 7 23 Z M 7 10 "/>
</clipPath>
<clipPath id="clip2">
  <path d="M 7.265625 16.148438 C 7.265625 19.390625 9.90625 22.027344 13.148438 22.027344 L 36.671875 22.027344 C 39.914063 22.027344 42.550781 19.390625 42.550781 16.148438 C 42.550781 12.90625 39.914063 10.265625 36.671875 10.265625 L 13.148438 10.265625 C 9.90625 10.265625 7.265625 12.90625 7.265625 16.148438 Z M 7.265625 16.148438 "/>
</clipPath>
<clipPath id="clip3">
  <path d="M 6 9 L 44 9 L 44 24 L 6 24 Z M 6 9 "/>
</clipPath>
<clipPath id="clip4">
  <path d="M 6.179688 16.238281 C 6.179688 12.347656 9.347656 9.179688 13.238281 9.179688 L 36.761719 9.179688 C 40.652344 9.179688 43.820313 12.347656 43.820313 16.238281 C 43.820313 20.128906 40.652344 23.296875 36.761719 23.296875 L 13.238281 23.296875 C 9.347656 23.296875 6.179688 20.128906 6.179688 16.238281 Z M 42.644531 16.238281 C 42.644531 12.996094 40.003906 10.355469 36.761719 10.355469 L 13.238281 10.355469 C 9.996094 10.355469 7.355469 12.996094 7.355469 16.238281 C 7.355469 19.480469 9.996094 22.117188 13.238281 22.117188 L 36.761719 22.117188 C 40.003906 22.117188 42.644531 19.480469 42.644531 16.238281 Z M 42.644531 16.238281 "/>
</clipPath>
<clipPath id="clip5">
  <path d="M 20 12 L 30 12 L 30 21 L 20 21 Z M 20 12 "/>
</clipPath>
<clipPath id="clip6">
  <path d="M 20.296875 20.0625 L 20.296875 12.414063 C 20.296875 12.253906 20.425781 12.121094 20.589844 12.121094 L 29.410156 12.121094 C 29.574219 12.121094 29.703125 12.253906 29.703125 12.414063 L 29.703125 20.0625 C 29.703125 20.222656 29.574219 20.355469 29.410156 20.355469 L 20.589844 20.355469 C 20.425781 20.355469 20.296875 20.222656 20.296875 20.0625 Z M 20.882813 12.710938 L 20.882813 19.765625 L 29.117188 19.765625 L 29.117188 12.710938 Z M 20.882813 12.710938 "/>
</clipPath>
<clipPath id="clip7">
  <path d="M 26 15 L 29 15 L 29 17 L 26 17 Z M 26 15 "/>
</clipPath>
<clipPath id="clip8">
  <path d="M 26.835938 16.238281 C 26.835938 16.5625 27.101563 16.828125 27.425781 16.828125 C 27.75 16.828125 28.015625 16.5625 28.015625 16.238281 C 28.015625 15.914063 27.75 15.648438 27.425781 15.648438 C 27.101563 15.648438 26.835938 15.914063 26.835938 16.238281 Z M 26.835938 16.238281 "/>
</clipPath>
<clipPath id="clip9">
  <path d="M 24 15 L 26 15 L 26 17 L 24 17 Z M 24 15 "/>
</clipPath>
<clipPath id="clip10">
  <path d="M 24.484375 16.238281 C 24.484375 16.5625 24.75 16.828125 25.074219 16.828125 C 25.398438 16.828125 25.660156 16.5625 25.660156 16.238281 C 25.660156 15.914063 25.398438 15.648438 25.074219 15.648438 C 24.75 15.648438 24.484375 15.914063 24.484375 16.238281 Z M 24.484375 16.238281 "/>
</clipPath>
<clipPath id="clip11">
  <path d="M 22 15 L 24 15 L 24 17 L 22 17 Z M 22 15 "/>
</clipPath>
<clipPath id="clip12">
  <path d="M 22.132813 16.238281 C 22.132813 16.5625 22.394531 16.828125 22.722656 16.828125 C 23.046875 16.828125 23.308594 16.5625 23.308594 16.238281 C 23.308594 15.914063 23.046875 15.648438 22.722656 15.648438 C 22.394531 15.648438 22.132813 15.914063 22.132813 16.238281 Z M 22.132813 16.238281 "/>
</clipPath>
<clipPath id="clip13">
  <path d="M 26 17 L 29 17 L 29 19 L 26 19 Z M 26 17 "/>
</clipPath>
<clipPath id="clip14">
  <path d="M 26.835938 18.296875 C 26.835938 18.621094 27.101563 18.882813 27.425781 18.882813 C 27.75 18.882813 28.015625 18.621094 28.015625 18.296875 C 28.015625 17.972656 27.75 17.707031 27.425781 17.707031 C 27.101563 17.707031 26.835938 17.972656 26.835938 18.296875 Z M 26.835938 18.296875 "/>
</clipPath>
<clipPath id="clip15">
  <path d="M 24 17 L 26 17 L 26 19 L 24 19 Z M 24 17 "/>
</clipPath>
<clipPath id="clip16">
  <path d="M 24.484375 18.296875 C 24.484375 18.621094 24.75 18.882813 25.074219 18.882813 C 25.398438 18.882813 25.660156 18.621094 25.660156 18.296875 C 25.660156 17.972656 25.398438 17.707031 25.074219 17.707031 C 24.75 17.707031 24.484375 17.972656 24.484375 18.296875 Z M 24.484375 18.296875 "/>
</clipPath>
<clipPath id="clip17">
  <path d="M 22 17 L 24 17 L 24 19 L 22 19 Z M 22 17 "/>
</clipPath>
<clipPath id="clip18">
  <path d="M 22.132813 18.296875 C 22.132813 18.621094 22.394531 18.882813 22.722656 18.882813 C 23.046875 18.882813 23.308594 18.621094 23.308594 18.296875 C 23.308594 17.972656 23.046875 17.707031 22.722656 17.707031 C 22.394531 17.707031 22.132813 17.972656 22.132813 18.296875 Z M 22.132813 18.296875 "/>
</clipPath>
<clipPath id="clip19">
  <path d="M 26 13 L 29 13 L 29 15 L 26 15 Z M 26 13 "/>
</clipPath>
<clipPath id="clip20">
  <path d="M 26.835938 14.179688 C 26.835938 14.503906 27.101563 14.769531 27.425781 14.769531 C 27.75 14.769531 28.015625 14.503906 28.015625 14.179688 C 28.015625 13.855469 27.75 13.589844 27.425781 13.589844 C 27.101563 13.589844 26.835938 13.855469 26.835938 14.179688 Z M 26.835938 14.179688 "/>
</clipPath>
<clipPath id="clip21">
  <path d="M 24 13 L 26 13 L 26 15 L 24 15 Z M 24 13 "/>
</clipPath>
<clipPath id="clip22">
  <path d="M 24.484375 14.179688 C 24.484375 14.503906 24.75 14.769531 25.074219 14.769531 C 25.398438 14.769531 25.660156 14.503906 25.660156 14.179688 C 25.660156 13.855469 25.398438 13.589844 25.074219 13.589844 C 24.75 13.589844 24.484375 13.855469 24.484375 14.179688 Z M 24.484375 14.179688 "/>
</clipPath>
<clipPath id="clip23">
  <path d="M 22 13 L 24 13 L 24 15 L 22 15 Z M 22 13 "/>
</clipPath>
<clipPath id="clip24">
  <path d="M 22.132813 14.179688 C 22.132813 14.503906 22.394531 14.769531 22.722656 14.769531 C 23.046875 14.769531 23.308594 14.503906 23.308594 14.179688 C 23.308594 13.855469 23.046875 13.589844 22.722656 13.589844 C 22.394531 13.589844 22.132813 13.855469 22.132813 14.179688 Z M 22.132813 14.179688 "/>
</clipPath>
<clipPath id="clip25">
  <path d="M 17 18 L 19 18 L 19 20 L 17 20 Z M 17 18 "/>
</clipPath>
<clipPath id="clip26">
  <path d="M 17.132813 18.589844 C 17.132813 18.914063 17.398438 19.179688 17.722656 19.179688 C 18.046875 19.179688 18.308594 18.914063 18.308594 18.589844 C 18.308594 18.265625 18.046875 18.003906 17.722656 18.003906 C 17.398438 18.003906 17.132813 18.265625 17.132813 18.589844 Z M 17.132813 18.589844 "/>
</clipPath>
<clipPath id="clip27">
  <path d="M 17 13 L 19 13 L 19 15 L 17 15 Z M 17 13 "/>
</clipPath>
<clipPath id="clip28">
  <path d="M 17.132813 13.589844 C 17.132813 13.917969 17.398438 14.179688 17.722656 14.179688 C 18.046875 14.179688 18.308594 13.917969 18.308594 13.589844 C 18.308594 13.265625 18.046875 13.003906 17.722656 13.003906 C 17.398438 13.003906 17.132813 13.265625 17.132813 13.589844 Z M 17.132813 13.589844 "/>
</clipPath>
<clipPath id="clip29">
  <path d="M 14 15 L 16 15 L 16 17 L 14 17 Z M 14 15 "/>
</clipPath>
<clipPath id="clip30">
  <path d="M 14.78125 16.238281 C 14.78125 16.5625 15.046875 16.828125 15.371094 16.828125 C 15.695313 16.828125 15.957031 16.5625 15.957031 16.238281 C 15.957031 15.914063 15.695313 15.648438 15.371094 15.648438 C 15.046875 15.648438 14.78125 15.914063 14.78125 16.238281 Z M 14.78125 16.238281 "/>
</clipPath>
<clipPath id="clip31">
  <path d="M 12 18 L 14 18 L 14 20 L 12 20 Z M 12 18 "/>
</clipPath>
<clipPath id="clip32">
  <path d="M 12.429688 18.589844 C 12.429688 18.914063 12.691406 19.179688 13.015625 19.179688 C 13.34375 19.179688 13.605469 18.914063 13.605469 18.589844 C 13.605469 18.265625 13.34375 18.003906 13.015625 18.003906 C 12.691406 18.003906 12.429688 18.265625 12.429688 18.589844 Z M 12.429688 18.589844 "/>
</clipPath>
<clipPath id="clip33">
  <path d="M 12 13 L 14 13 L 14 15 L 12 15 Z M 12 13 "/>
</clipPath>
<clipPath id="clip34">
  <path d="M 12.429688 13.589844 C 12.429688 13.917969 12.691406 14.179688 13.015625 14.179688 C 13.34375 14.179688 13.605469 13.917969 13.605469 13.589844 C 13.605469 13.265625 13.34375 13.003906 13.015625 13.003906 C 12.691406 13.003906 12.429688 13.265625 12.429688 13.589844 Z M 12.429688 13.589844 "/>
</clipPath>
<clipPath id="clip35">
  <path d="M 10 15 L 12 15 L 12 17 L 10 17 Z M 10 15 "/>
</clipPath>
<clipPath id="clip36">
  <path d="M 10.078125 16.238281 C 10.078125 16.5625 10.339844 16.828125 10.664063 16.828125 C 10.988281 16.828125 11.253906 16.5625 11.253906 16.238281 C 11.253906 15.914063 10.988281 15.648438 10.664063 15.648438 C 10.339844 15.648438 10.078125 15.914063 10.078125 16.238281 Z M 10.078125 16.238281 "/>
</clipPath>
<clipPath id="clip37">
  <path d="M 31 18 L 34 18 L 34 20 L 31 20 Z M 31 18 "/>
</clipPath>
<clipPath id="clip38">
  <path d="M 31.835938 18.589844 C 31.835938 18.914063 32.101563 19.179688 32.425781 19.179688 C 32.75 19.179688 33.011719 18.914063 33.011719 18.589844 C 33.011719 18.265625 32.75 18.003906 32.425781 18.003906 C 32.101563 18.003906 31.835938 18.265625 31.835938 18.589844 Z M 31.835938 18.589844 "/>
</clipPath>
<clipPath id="clip39">
  <path d="M 31 13 L 34 13 L 34 15 L 31 15 Z M 31 13 "/>
</clipPath>
<clipPath id="clip40">
  <path d="M 31.835938 13.886719 C 31.835938 14.210938 32.101563 14.472656 32.425781 14.472656 C 32.75 14.472656 33.011719 14.210938 33.011719 13.886719 C 33.011719 13.5625 32.75 13.296875 32.425781 13.296875 C 32.101563 13.296875 31.835938 13.5625 31.835938 13.886719 Z M 31.835938 13.886719 "/>
</clipPath>
<clipPath id="clip41">
  <path d="M 34 15 L 36 15 L 36 17 L 34 17 Z M 34 15 "/>
</clipPath>
<clipPath id="clip42">
  <path d="M 34.1875 16.238281 C 34.1875 16.5625 34.453125 16.828125 34.777344 16.828125 C 35.101563 16.828125 35.363281 16.5625 35.363281 16.238281 C 35.363281 15.914063 35.101563 15.648438 34.777344 15.648438 C 34.453125 15.648438 34.1875 15.914063 34.1875 16.238281 Z M 34.1875 16.238281 "/>
</clipPath>
<clipPath id="clip43">
  <path d="M 36 18 L 38 18 L 38 20 L 36 20 Z M 36 18 "/>
</clipPath>
<clipPath id="clip44">
  <path d="M 36.542969 18.589844 C 36.542969 18.914063 36.804688 19.179688 37.128906 19.179688 C 37.453125 19.179688 37.71875 18.914063 37.71875 18.589844 C 37.71875 18.265625 37.453125 18.003906 37.128906 18.003906 C 36.804688 18.003906 36.542969 18.265625 36.542969 18.589844 Z M 36.542969 18.589844 "/>
</clipPath>
<clipPath id="clip45">
  <path d="M 36 13 L 38 13 L 38 15 L 36 15 Z M 36 13 "/>
</clipPath>
<clipPath id="clip46">
  <path d="M 36.542969 13.886719 C 36.542969 14.210938 36.804688 14.472656 37.128906 14.472656 C 37.453125 14.472656 37.71875 14.210938 37.71875 13.886719 C 37.71875 13.5625 37.453125 13.296875 37.128906 13.296875 C 36.804688 13.296875 36.542969 13.5625 36.542969 13.886719 Z M 36.542969 13.886719 "/>
</clipPath>
<clipPath id="clip47">
  <path d="M 38 15 L 41 15 L 41 17 L 38 17 Z M 38 15 "/>
</clipPath>
<clipPath id="clip48">
  <path d="M 38.894531 16.238281 C 38.894531 16.5625 39.15625 16.828125 39.480469 16.828125 C 39.804688 16.828125 40.070313 16.5625 40.070313 16.238281 C 40.070313 15.914063 39.804688 15.648438 39.480469 15.648438 C 39.15625 15.648438 38.894531 15.914063 38.894531 16.238281 Z M 38.894531 16.238281 "/>
</clipPath>
</defs>
<g id="surface1">
<g clip-path="url(#clip1)" clip-rule="nonzero">
<g clip-path="url(#clip2)" clip-rule="evenodd">
<path style=" stroke:none;fill-rule:nonzero;fill:rgb(100%,100%,100%);fill-opacity:1;" d="M 2.265625 27.027344 L 2.265625 5.265625 L 47.550781 5.265625 L 47.550781 27.027344 Z M 2.265625 27.027344 "/>
</g>
</g>
<g clip-path="url(#clip3)" clip-rule="nonzero">
<g clip-path="url(#clip4)" clip-rule="nonzero">
<path style=" stroke:none;fill-rule:nonzero;fill:rgb(100%,43.528748%,53.726196%);fill-opacity:1;" d="M 48.820313 4.179688 L 48.820313 28.296875 L 1.179688 28.296875 L 1.179688 4.179688 Z M 48.820313 4.179688 "/>
</g>
</g>
<path style="fill:none;stroke-width:0.3;stroke-linecap:butt;stroke-linejoin:miter;stroke:rgb(100%,43.528748%,53.726196%);stroke-opacity:1;stroke-miterlimit:10;" d="M 7.057331 37.639362 C 3.166706 37.639362 -0.0012625 34.471394 -0.0012625 30.580769 L -0.0012625 7.057331 C -0.0012625 3.166706 3.166706 -0.0012625 7.057331 -0.0012625 C 10.947956 -0.0012625 14.115925 3.166706 14.115925 7.057331 L 14.115925 30.580769 C 14.115925 34.471394 10.947956 37.639362 7.057331 37.639362 Z M 7.057331 1.174519 C 3.815144 1.174519 1.174519 3.815144 1.174519 7.057331 L 1.174519 30.580769 C 1.174519 33.822956 3.815144 36.463581 7.057331 36.463581 C 10.299519 36.463581 12.936238 33.822956 12.936238 30.580769 L 12.936238 7.057331 C 12.936238 3.815144 10.299519 1.174519 7.057331 1.174519 Z M 7.057331 1.174519 " transform="matrix(0,1,-1,0,43.81905,9.18095)"/>
<g clip-path="url(#clip5)" clip-rule="nonzero">
<g clip-path="url(#clip6)" clip-rule="nonzero">
<path style=" stroke:none;fill-rule:nonzero;fill:rgb(100%,43.528748%,53.726196%);fill-opacity:1;" d="M 34.703125 7.121094 L 34.703125 25.355469 L 15.296875 25.355469 L 15.296875 7.121094 Z M 34.703125 7.121094 "/>
</g>
</g>
<g clip-path="url(#clip7)" clip-rule="nonzero">
<g clip-path="url(#clip8)" clip-rule="nonzero">
<path style=" stroke:none;fill-rule:nonzero;fill:rgb(100%,43.528748%,53.726196%);fill-opacity:1;" d="M 33.015625 10.648438 L 33.015625 21.828125 L 21.835938 21.828125 L 21.835938 10.648438 Z M 33.015625 10.648438 "/>
</g>
</g>
<g clip-path="url(#clip9)" clip-rule="nonzero">
<g clip-path="url(#clip10)" clip-rule="nonzero">
<path style=" stroke:none;fill-rule:nonzero;fill:rgb(100%,43.528748%,53.726196%);fill-opacity:1;" d="M 30.660156 10.648438 L 30.660156 21.828125 L 19.484375 21.828125 L 19.484375 10.648438 Z M 30.660156 10.648438 "/>
</g>
</g>
<g clip-path="url(#clip11)" clip-rule="nonzero">
<g clip-path="url(#clip12)" clip-rule="nonzero">
<path style=" stroke:none;fill-rule:nonzero;fill:rgb(100%,43.528748%,53.726196%);fill-opacity:1;" d="M 28.308594 10.648438 L 28.308594 21.828125 L 17.132813 21.828125 L 17.132813 10.648438 Z M 28.308594 10.648438 "/>
</g>
</g>
<g clip-path="url(#clip13)" clip-rule="nonzero">
<g clip-path="url(#clip14)" clip-rule="nonzero">
<path style=" stroke:none;fill-rule:nonzero;fill:rgb(100%,43.528748%,53.726196%);fill-opacity:1;" d="M 33.015625 12.707031 L 33.015625 23.882813 L 21.835938 23.882813 L 21.835938 12.707031 Z M 33.015625 12.707031 "/>
</g>
</g>
<g clip-path="url(#clip15)" clip-rule="nonzero">
<g clip-path="url(#clip16)" clip-rule="nonzero">
<path style=" stroke:none;fill-rule:nonzero;fill:rgb(100%,43.528748%,53.726196%);fill-opacity:1;" d="M 30.660156 12.707031 L 30.660156 23.882813 L 19.484375 23.882813 L 19.484375 12.707031 Z M 30.660156 12.707031 "/>
</g>
</g>
<g clip-path="url(#clip17)" clip-rule="nonzero">
<g clip-path="url(#clip18)" clip-rule="nonzero">
<path style=" stroke:none;fill-rule:nonzero;fill:rgb(100%,43.528748%,53.726196%);fill-opacity:1;" d="M 28.308594 12.707031 L 28.308594 23.882813 L 17.132813 23.882813 L 17.132813 12.707031 Z M 28.308594 12.707031 "/>
</g>
</g>
<g clip-path="url(#clip19)" clip-rule="nonzero">
<g clip-path="url(#clip20)" clip-rule="nonzero">
<path style=" stroke:none;fill-rule:nonzero;fill:rgb(100%,43.528748%,53.726196%);fill-opacity:1;" d="M 33.015625 8.589844 L 33.015625 19.769531 L 21.835938 19.769531 L 21.835938 8.589844 Z M 33.015625 8.589844 "/>
</g>
</g>
<g clip-path="url(#clip21)" clip-rule="nonzero">
<g clip-path="url(#clip22)" clip-rule="nonzero">
<path style=" stroke:none;fill-rule:nonzero;fill:rgb(100%,43.528748%,53.726196%);fill-opacity:1;" d="M 30.660156 8.589844 L 30.660156 19.769531 L 19.484375 19.769531 L 19.484375 8.589844 Z M 30.660156 8.589844 "/>
</g>
</g>
<g clip-path="url(#clip23)" clip-rule="nonzero">
<g clip-path="url(#clip24)" clip-rule="nonzero">
<path style=" stroke:none;fill-rule:nonzero;fill:rgb(100%,43.528748%,53.726196%);fill-opacity:1;" d="M 28.308594 8.589844 L 28.308594 19.769531 L 17.132813 19.769531 L 17.132813 8.589844 Z M 28.308594 8.589844 "/>
</g>
</g>
<g clip-path="url(#clip25)" clip-rule="nonzero">
<g clip-path="url(#clip26)" clip-rule="nonzero">
<path style=" stroke:none;fill-rule:nonzero;fill:rgb(100%,43.528748%,53.726196%);fill-opacity:1;" d="M 23.308594 13.003906 L 23.308594 24.179688 L 12.132813 24.179688 L 12.132813 13.003906 Z M 23.308594 13.003906 "/>
</g>
</g>
<g clip-path="url(#clip27)" clip-rule="nonzero">
<g clip-path="url(#clip28)" clip-rule="nonzero">
<path style=" stroke:none;fill-rule:nonzero;fill:rgb(100%,43.528748%,53.726196%);fill-opacity:1;" d="M 23.308594 8.003906 L 23.308594 19.179688 L 12.132813 19.179688 L 12.132813 8.003906 Z M 23.308594 8.003906 "/>
</g>
</g>
<g clip-path="url(#clip29)" clip-rule="nonzero">
<g clip-path="url(#clip30)" clip-rule="nonzero">
<path style=" stroke:none;fill-rule:nonzero;fill:rgb(100%,43.528748%,53.726196%);fill-opacity:1;" d="M 20.957031 10.648438 L 20.957031 21.828125 L 9.78125 21.828125 L 9.78125 10.648438 Z M 20.957031 10.648438 "/>
</g>
</g>
<g clip-path="url(#clip31)" clip-rule="nonzero">
<g clip-path="url(#clip32)" clip-rule="nonzero">
<path style=" stroke:none;fill-rule:nonzero;fill:rgb(100%,43.528748%,53.726196%);fill-opacity:1;" d="M 18.605469 13.003906 L 18.605469 24.179688 L 7.429688 24.179688 L 7.429688 13.003906 Z M 18.605469 13.003906 "/>
</g>
</g>
<g clip-path="url(#clip33)" clip-rule="nonzero">
<g clip-path="url(#clip34)" clip-rule="nonzero">
<path style=" stroke:none;fill-rule:nonzero;fill:rgb(100%,43.528748%,53.726196%);fill-opacity:1;" d="M 18.605469 8.003906 L 18.605469 19.179688 L 7.429688 19.179688 L 7.429688 8.003906 Z M 18.605469 8.003906 "/>
</g>
</g>
<g clip-path="url(#clip35)" clip-rule="nonzero">
<g clip-path="url(#clip36)" clip-rule="nonzero">
<path style=" stroke:none;fill-rule:nonzero;fill:rgb(100%,43.528748%,53.726196%);fill-opacity:1;" d="M 16.253906 10.648438 L 16.253906 21.828125 L 5.078125 21.828125 L 5.078125 10.648438 Z M 16.253906 10.648438 "/>
</g>
</g>
<g clip-path="url(#clip37)" clip-rule="nonzero">
<g clip-path="url(#clip38)" clip-rule="nonzero">
<path style=" stroke:none;fill-rule:nonzero;fill:rgb(100%,43.528748%,53.726196%);fill-opacity:1;" d="M 38.011719 13.003906 L 38.011719 24.179688 L 26.835938 24.179688 L 26.835938 13.003906 Z M 38.011719 13.003906 "/>
</g>
</g>
<g clip-path="url(#clip39)" clip-rule="nonzero">
<g clip-path="url(#clip40)" clip-rule="nonzero">
<path style=" stroke:none;fill-rule:nonzero;fill:rgb(100%,43.528748%,53.726196%);fill-opacity:1;" d="M 26.835938 19.472656 L 38.011719 19.472656 L 38.011719 8.296875 L 26.835938 8.296875 Z M 26.835938 19.472656 "/>
</g>
</g>
<g clip-path="url(#clip41)" clip-rule="nonzero">
<g clip-path="url(#clip42)" clip-rule="nonzero">
<path style=" stroke:none;fill-rule:nonzero;fill:rgb(100%,43.528748%,53.726196%);fill-opacity:1;" d="M 40.363281 10.648438 L 40.363281 21.828125 L 29.1875 21.828125 L 29.1875 10.648438 Z M 40.363281 10.648438 "/>
</g>
</g>
<g clip-path="url(#clip43)" clip-rule="nonzero">
<g clip-path="url(#clip44)" clip-rule="nonzero">
<path style=" stroke:none;fill-rule:nonzero;fill:rgb(100%,43.528748%,53.726196%);fill-opacity:1;" d="M 42.71875 13.003906 L 42.71875 24.179688 L 31.542969 24.179688 L 31.542969 13.003906 Z M 42.71875 13.003906 "/>
</g>
</g>
<g clip-path="url(#clip45)" clip-rule="nonzero">
<g clip-path="url(#clip46)" clip-rule="nonzero">
<path style=" stroke:none;fill-rule:nonzero;fill:rgb(100%,43.528748%,53.726196%);fill-opacity:1;" d="M 42.71875 8.296875 L 42.71875 19.472656 L 31.542969 19.472656 L 31.542969 8.296875 Z M 42.71875 8.296875 "/>
</g>
</g>
<g clip-path="url(#clip47)" clip-rule="nonzero">
<g clip-path="url(#clip48)" clip-rule="nonzero">
<path style=" stroke:none;fill-rule:nonzero;fill:rgb(100%,43.528748%,53.726196%);fill-opacity:1;" d="M 45.070313 10.648438 L 45.070313 21.828125 L 33.894531 21.828125 L 33.894531 10.648438 Z M 45.070313 10.648438 "/>
</g>
</g>
</g>
</svg>
