<?xml version="1.0" encoding="UTF-8"?>
<svg xmlns="http://www.w3.org/2000/svg" xmlns:xlink="http://www.w3.org/1999/xlink" width="36pt" height="36pt" viewBox="0 0 36 36" version="1.1">
<defs>
<clipPath id="clip1">
  <path d="M 5 9 L 31 9 L 31 29 L 5 29 Z M 5 9 "/>
</clipPath>
<clipPath id="clip2">
  <path d="M 8.644531 4.0625 L 30.789063 9.992188 L 25.582031 29.421875 L 3.441406 23.488281 Z M 8.644531 4.0625 "/>
</clipPath>
<clipPath id="clip4">
  <path d="M 3.644531 -4.9375 L 25.789063 0.992188 L 20.582031 20.421875 L -1.558594 14.488281 Z M 3.644531 -4.9375 "/>
</clipPath>
<clipPath id="clip5">
  <path d="M 9.535156 14.640625 C 10.082031 14.292969 10.4375 14.066406 10.863281 13.792969 C 10.527344 13.410156 10.265625 13.109375 9.875 12.664063 C 9.746094 13.414063 9.660156 13.925781 9.535156 14.640625 M 10.871094 11.078125 C 12.539063 13.039063 14.222656 15.027344 15.996094 17.117188 C 18.171875 12.832031 20.289063 8.667969 22.449219 4.417969 C 18.523438 6.675781 14.738281 8.851563 10.871094 11.078125 M 15.890625 19.164063 L 15.332031 19.015625 C 14.226563 17.742188 13.121094 16.472656 11.976563 15.15625 C 11.210938 15.640625 10.527344 16.1875 9.75 16.535156 C 9.285156 16.738281 8.535156 16.839844 8.183594 16.597656 C 7.828125 16.355469 7.613281 15.601563 7.675781 15.117188 C 7.855469 13.757813 8.242188 12.425781 8.488281 11.074219 C 8.605469 10.40625 8.957031 10.023438 9.527344 9.699219 C 12.585938 7.957031 15.625 6.175781 18.671875 4.417969 C 19.21875 4.101563 19.785156 3.824219 20.339844 3.53125 C 20.308594 3.453125 20.273438 3.375 20.242188 3.296875 C 14.671875 4.140625 9.101563 4.984375 3.273438 5.871094 C 4.632813 6.726563 5.710938 7.410156 6.792969 8.085938 C 7.304688 8.40625 7.691406 8.808594 7.292969 9.414063 C 6.921875 9.976563 6.417969 9.902344 5.878906 9.550781 C 4.621094 8.730469 3.300781 8.003906 2.085938 7.125 C 1.5625 6.75 0.679688 6.132813 0.875 5.390625 C 1.125 4.464844 2.078125 4.378906 2.703125 4.277344 C 8.8125 3.292969 14.929688 2.386719 21.046875 1.441406 C 22.230469 1.257813 23.40625 1.015625 24.589844 0.800781 C 25.011719 0.714844 25.234375 0.828125 25.332031 1 C 25.738281 1.707031 25.542969 2.019531 25.242188 2.605469 C 22.648438 7.671875 20.050781 12.734375 17.492188 17.820313 C 17.128906 18.535156 16.683594 19.023438 15.890625 19.164063 "/>
</clipPath>
<clipPath id="clip3">
  <rect width="26" height="20"/>
</clipPath>
<g id="surface4" clip-path="url(#clip3)">
<g clip-path="url(#clip4)" clip-rule="evenodd">
<g clip-path="url(#clip5)" clip-rule="evenodd">
<path style=" stroke:none;fill-rule:nonzero;fill:rgb(100%,100%,100%);fill-opacity:1;" d="M 0.109375 -11.0625 L 31.914063 -2.542969 L 24.117188 26.542969 L -7.683594 18.023438 Z M 0.109375 -11.0625 "/>
</g>
</g>
</g>
</defs>
<g id="surface1">
<g clip-path="url(#clip1)" clip-rule="nonzero">
<g clip-path="url(#clip2)" clip-rule="evenodd">
<use xlink:href="#surface4" transform="matrix(1,0,0,1,5,9)"/>
</g>
</g>
</g>
</svg>
