<?xml version="1.0" encoding="UTF-8"?>
<svg xmlns="http://www.w3.org/2000/svg" xmlns:xlink="http://www.w3.org/1999/xlink" width="98pt" height="83pt" viewBox="0 0 98 83" version="1.1">
<defs>
<clipPath id="clip1">
  <path d="M 0 3 L 79 3 L 79 83 L 0 83 Z M 0 3 "/>
</clipPath>
<clipPath id="clip2">
  <path d="M 78.5 52.5 L 35.664063 10.011719 C 27.515625 1.882813 14.257813 1.882813 6.109375 10.011719 C -2.035156 18.144531 -2.035156 31.371094 6.109375 39.503906 L 49.574219 82.875 Z M 78.5 52.5 "/>
</clipPath>
<clipPath id="clip3">
  <path d="M 17 0 L 98 0 L 98 80 L 17 80 Z M 17 0 "/>
</clipPath>
<clipPath id="clip4">
  <path d="M 90.246094 7.148438 C 80.695313 -2.382813 65.148438 -2.382813 55.597656 7.148438 L 17.285156 45.382813 L 51.933594 79.957031 L 90.246094 41.722656 C 99.800781 32.191406 99.796875 16.679688 90.246094 7.148438 "/>
</clipPath>
<clipPath id="clip5">
  <path d="M 19 4 L 93 4 L 93 77 L 19 77 Z M 19 4 "/>
</clipPath>
<clipPath id="clip6">
  <path d="M 86.914063 10.03125 C 78.957031 2.085938 66 2.085938 58.042969 10.03125 L 19.949219 48.039063 L 48.824219 76.851563 L 86.914063 38.839844 C 94.875 30.898438 94.875 17.972656 86.914063 10.03125 "/>
</clipPath>
<clipPath id="clip7">
  <path d="M 22 32 L 66 32 L 66 75 L 22 75 Z M 22 32 "/>
</clipPath>
<clipPath id="clip8">
  <path d="M 42.605469 71.976563 L 25.28125 54.6875 L 45.492188 34.519531 L 62.816406 51.808594 Z M 64.980469 51.085938 L 46.214844 32.359375 C 45.816406 31.960938 45.167969 31.960938 44.773438 32.359375 L 23.117188 53.96875 C 22.714844 54.367188 22.714844 55.011719 23.117188 55.410156 L 41.882813 74.136719 C 42.28125 74.535156 42.929688 74.535156 43.328125 74.136719 L 64.980469 52.527344 C 65.378906 52.128906 65.382813 51.484375 64.980469 51.085938 Z M 64.980469 51.085938 "/>
</clipPath>
<clipPath id="clip9">
  <path d="M 47 45 L 53 45 L 53 50 L 47 50 Z M 47 45 "/>
</clipPath>
<clipPath id="clip10">
  <path d="M 48.5625 48.746094 C 49.359375 49.542969 50.652344 49.542969 51.449219 48.746094 C 52.246094 47.949219 52.246094 46.660156 51.449219 45.863281 C 50.652344 45.070313 49.359375 45.070313 48.5625 45.863281 C 47.761719 46.660156 47.761719 47.949219 48.5625 48.746094 "/>
</clipPath>
<clipPath id="clip11">
  <path d="M 42 51 L 47 51 L 47 56 L 42 56 Z M 42 51 "/>
</clipPath>
<clipPath id="clip12">
  <path d="M 42.785156 54.507813 C 43.582031 55.304688 44.875 55.304688 45.671875 54.507813 C 46.472656 53.710938 46.472656 52.421875 45.671875 51.628906 C 44.875 50.832031 43.582031 50.832031 42.785156 51.628906 C 41.988281 52.421875 41.988281 53.710938 42.785156 54.507813 "/>
</clipPath>
<clipPath id="clip13">
  <path d="M 36 56 L 41 56 L 41 61 L 36 61 Z M 36 56 "/>
</clipPath>
<clipPath id="clip14">
  <path d="M 37.011719 60.269531 C 37.808594 61.066406 39.101563 61.066406 39.898438 60.269531 C 40.695313 59.476563 40.695313 58.183594 39.898438 57.390625 C 39.101563 56.59375 37.808594 56.59375 37.011719 57.390625 C 36.214844 58.183594 36.214844 59.476563 37.011719 60.269531 "/>
</clipPath>
<clipPath id="clip15">
  <path d="M 53 50 L 58 50 L 58 55 L 53 55 Z M 53 50 "/>
</clipPath>
<clipPath id="clip16">
  <path d="M 53.613281 53.789063 C 54.410156 54.582031 55.703125 54.582031 56.5 53.789063 C 57.296875 52.992188 57.296875 51.703125 56.5 50.90625 C 55.703125 50.109375 54.410156 50.109375 53.613281 50.90625 C 52.816406 51.703125 52.816406 52.992188 53.613281 53.789063 "/>
</clipPath>
<clipPath id="clip17">
  <path d="M 47 56 L 52 56 L 52 61 L 47 61 Z M 47 56 "/>
</clipPath>
<clipPath id="clip18">
  <path d="M 47.839844 59.550781 C 48.636719 60.347656 49.929688 60.347656 50.726563 59.550781 C 51.523438 58.753906 51.523438 57.464844 50.726563 56.667969 C 49.929688 55.871094 48.636719 55.871094 47.839844 56.667969 C 47.042969 57.464844 47.042969 58.753906 47.839844 59.550781 "/>
</clipPath>
<clipPath id="clip19">
  <path d="M 41 61 L 46 61 L 46 66 L 41 66 Z M 41 61 "/>
</clipPath>
<clipPath id="clip20">
  <path d="M 42.0625 65.3125 C 42.863281 66.109375 44.15625 66.109375 44.949219 65.3125 C 45.75 64.519531 45.75 63.226563 44.949219 62.429688 C 44.15625 61.636719 42.863281 61.636719 42.0625 62.429688 C 41.265625 63.226563 41.265625 64.519531 42.0625 65.3125 "/>
</clipPath>
<clipPath id="clip21">
  <path d="M 42 40 L 47 40 L 47 45 L 42 45 Z M 42 40 "/>
</clipPath>
<clipPath id="clip22">
  <path d="M 43.507813 43.703125 C 44.304688 44.5 45.597656 44.5 46.394531 43.703125 C 47.191406 42.90625 47.191406 41.617188 46.394531 40.824219 C 45.597656 40.027344 44.304688 40.027344 43.507813 40.824219 C 42.710938 41.617188 42.710938 42.90625 43.507813 43.703125 "/>
</clipPath>
<clipPath id="clip23">
  <path d="M 37 45 L 42 45 L 42 51 L 37 51 Z M 37 45 "/>
</clipPath>
<clipPath id="clip24">
  <path d="M 37.734375 49.464844 C 38.53125 50.261719 39.824219 50.261719 40.621094 49.464844 C 41.417969 48.671875 41.417969 47.378906 40.621094 46.585938 C 39.824219 45.789063 38.53125 45.789063 37.734375 46.585938 C 36.933594 47.378906 36.933594 48.671875 37.734375 49.464844 "/>
</clipPath>
<clipPath id="clip25">
  <path d="M 31 51 L 36 51 L 36 56 L 31 56 Z M 31 51 "/>
</clipPath>
<clipPath id="clip26">
  <path d="M 31.957031 55.230469 C 32.753906 56.023438 34.046875 56.023438 34.847656 55.230469 C 35.644531 54.433594 35.644531 53.144531 34.847656 52.347656 C 34.046875 51.550781 32.753906 51.550781 31.957031 52.347656 C 31.160156 53.144531 31.160156 54.433594 31.957031 55.230469 "/>
</clipPath>
<clipPath id="clip27">
  <path d="M 66 38 L 71 38 L 71 43 L 66 43 Z M 66 38 "/>
</clipPath>
<clipPath id="clip28">
  <path d="M 66.605469 42.261719 C 67.402344 43.058594 68.699219 43.058594 69.492188 42.261719 C 70.292969 41.46875 70.292969 40.179688 69.492188 39.382813 C 68.699219 38.585938 67.402344 38.585938 66.605469 39.382813 C 65.808594 40.179688 65.808594 41.46875 66.605469 42.261719 "/>
</clipPath>
<clipPath id="clip29">
  <path d="M 54 27 L 59 27 L 59 32 L 54 32 Z M 54 27 "/>
</clipPath>
<clipPath id="clip30">
  <path d="M 55.058594 30.738281 C 55.855469 31.535156 57.148438 31.535156 57.945313 30.738281 C 58.742188 29.945313 58.742188 28.652344 57.945313 27.855469 C 57.148438 27.0625 55.855469 27.0625 55.058594 27.855469 C 54.257813 28.652344 54.257813 29.945313 55.058594 30.738281 "/>
</clipPath>
<clipPath id="clip31">
  <path d="M 66 27 L 71 27 L 71 32 L 66 32 Z M 66 27 "/>
</clipPath>
<clipPath id="clip32">
  <path d="M 66.605469 30.738281 C 67.402344 31.535156 68.699219 31.535156 69.492188 30.738281 C 70.292969 29.945313 70.292969 28.652344 69.492188 27.855469 C 68.699219 27.0625 67.402344 27.0625 66.605469 27.855469 C 65.808594 28.652344 65.808594 29.945313 66.605469 30.738281 "/>
</clipPath>
<clipPath id="clip33">
  <path d="M 77 27 L 82 27 L 82 32 L 77 32 Z M 77 27 "/>
</clipPath>
<clipPath id="clip34">
  <path d="M 78.15625 30.738281 C 78.953125 31.535156 80.246094 31.535156 81.042969 30.738281 C 81.839844 29.945313 81.839844 28.652344 81.042969 27.855469 C 80.246094 27.0625 78.953125 27.0625 78.15625 27.855469 C 77.359375 28.652344 77.359375 29.945313 78.15625 30.738281 "/>
</clipPath>
<clipPath id="clip35">
  <path d="M 66 15 L 71 15 L 71 20 L 66 20 Z M 66 15 "/>
</clipPath>
<clipPath id="clip36">
  <path d="M 66.605469 19.214844 C 67.402344 20.007813 68.699219 20.007813 69.492188 19.214844 C 70.292969 18.417969 70.292969 17.128906 69.492188 16.332031 C 68.699219 15.535156 67.402344 15.535156 66.605469 16.332031 C 65.808594 17.128906 65.808594 18.417969 66.605469 19.214844 "/>
</clipPath>
<clipPath id="clip37">
  <path d="M 77 15 L 82 15 L 82 20 L 77 20 Z M 77 15 "/>
</clipPath>
<clipPath id="clip38">
  <path d="M 78.15625 19.214844 C 78.953125 20.007813 80.246094 20.007813 81.042969 19.214844 C 81.839844 18.417969 81.839844 17.128906 81.042969 16.332031 C 80.246094 15.535156 78.953125 15.535156 78.15625 16.332031 C 77.359375 17.128906 77.359375 18.417969 78.15625 19.214844 "/>
</clipPath>
</defs>
<g id="surface1">
<g clip-path="url(#clip1)" clip-rule="nonzero">
<g clip-path="url(#clip2)" clip-rule="evenodd">
<path style=" stroke:none;fill-rule:nonzero;fill:rgb(100%,43.528748%,53.726196%);fill-opacity:1;" d="M -5 87.875 L 83.5 87.875 L 83.5 -1.085938 L -5 -1.085938 Z M -5 87.875 "/>
</g>
</g>
<g clip-path="url(#clip3)" clip-rule="nonzero">
<g clip-path="url(#clip4)" clip-rule="evenodd">
<path style=" stroke:none;fill-rule:nonzero;fill:rgb(100%,43.528748%,53.726196%);fill-opacity:1;" d="M 12.285156 84.957031 L 102.410156 84.957031 L 102.410156 -5 L 12.285156 -5 Z M 12.285156 84.957031 "/>
</g>
</g>
<g clip-path="url(#clip5)" clip-rule="nonzero">
<g clip-path="url(#clip6)" clip-rule="evenodd">
<path style=" stroke:none;fill-rule:nonzero;fill:rgb(99.607849%,99.607849%,99.607849%);fill-opacity:1;" d="M 14.949219 81.851563 L 97.886719 81.851563 L 97.886719 -0.925781 L 14.949219 -0.925781 Z M 14.949219 81.851563 "/>
</g>
</g>
<g clip-path="url(#clip7)" clip-rule="nonzero">
<g clip-path="url(#clip8)" clip-rule="evenodd">
<path style=" stroke:none;fill-rule:nonzero;fill:rgb(100%,43.528748%,53.726196%);fill-opacity:1;" d="M 17.816406 79.4375 L 70.28125 79.4375 L 70.28125 27.0625 L 17.816406 27.0625 Z M 17.816406 79.4375 "/>
</g>
</g>
<g clip-path="url(#clip9)" clip-rule="nonzero">
<g clip-path="url(#clip10)" clip-rule="evenodd">
<path style=" stroke:none;fill-rule:nonzero;fill:rgb(100%,43.528748%,53.726196%);fill-opacity:1;" d="M 42.960938 54.34375 L 57.046875 54.34375 L 57.046875 40.269531 L 42.960938 40.269531 Z M 42.960938 54.34375 "/>
</g>
</g>
<g clip-path="url(#clip11)" clip-rule="nonzero">
<g clip-path="url(#clip12)" clip-rule="evenodd">
<path style=" stroke:none;fill-rule:nonzero;fill:rgb(100%,43.528748%,53.726196%);fill-opacity:1;" d="M 37.1875 60.105469 L 51.273438 60.105469 L 51.273438 46.03125 L 37.1875 46.03125 Z M 37.1875 60.105469 "/>
</g>
</g>
<g clip-path="url(#clip13)" clip-rule="nonzero">
<g clip-path="url(#clip14)" clip-rule="evenodd">
<path style=" stroke:none;fill-rule:nonzero;fill:rgb(100%,43.528748%,53.726196%);fill-opacity:1;" d="M 31.414063 65.867188 L 45.496094 65.867188 L 45.496094 51.792969 L 31.414063 51.792969 Z M 31.414063 65.867188 "/>
</g>
</g>
<g clip-path="url(#clip15)" clip-rule="nonzero">
<g clip-path="url(#clip16)" clip-rule="evenodd">
<path style=" stroke:none;fill-rule:nonzero;fill:rgb(100%,43.528748%,53.726196%);fill-opacity:1;" d="M 48.015625 59.386719 L 62.097656 59.386719 L 62.097656 45.308594 L 48.015625 45.308594 Z M 48.015625 59.386719 "/>
</g>
</g>
<g clip-path="url(#clip17)" clip-rule="nonzero">
<g clip-path="url(#clip18)" clip-rule="evenodd">
<path style=" stroke:none;fill-rule:nonzero;fill:rgb(100%,43.528748%,53.726196%);fill-opacity:1;" d="M 42.242188 65.148438 L 56.324219 65.148438 L 56.324219 51.070313 L 42.242188 51.070313 Z M 42.242188 65.148438 "/>
</g>
</g>
<g clip-path="url(#clip19)" clip-rule="nonzero">
<g clip-path="url(#clip20)" clip-rule="evenodd">
<path style=" stroke:none;fill-rule:nonzero;fill:rgb(100%,43.528748%,53.726196%);fill-opacity:1;" d="M 36.464844 70.910156 L 50.550781 70.910156 L 50.550781 56.835938 L 36.464844 56.835938 Z M 36.464844 70.910156 "/>
</g>
</g>
<g clip-path="url(#clip21)" clip-rule="nonzero">
<g clip-path="url(#clip22)" clip-rule="evenodd">
<path style=" stroke:none;fill-rule:nonzero;fill:rgb(100%,43.528748%,53.726196%);fill-opacity:1;" d="M 37.910156 49.300781 L 51.992188 49.300781 L 51.992188 35.226563 L 37.910156 35.226563 Z M 37.910156 49.300781 "/>
</g>
</g>
<g clip-path="url(#clip23)" clip-rule="nonzero">
<g clip-path="url(#clip24)" clip-rule="evenodd">
<path style=" stroke:none;fill-rule:nonzero;fill:rgb(100%,43.528748%,53.726196%);fill-opacity:1;" d="M 32.136719 55.0625 L 46.21875 55.0625 L 46.21875 40.988281 L 32.136719 40.988281 Z M 32.136719 55.0625 "/>
</g>
</g>
<g clip-path="url(#clip25)" clip-rule="nonzero">
<g clip-path="url(#clip26)" clip-rule="evenodd">
<path style=" stroke:none;fill-rule:nonzero;fill:rgb(100%,43.528748%,53.726196%);fill-opacity:1;" d="M 26.359375 60.824219 L 40.445313 60.824219 L 40.445313 46.75 L 26.359375 46.75 Z M 26.359375 60.824219 "/>
</g>
</g>
<g clip-path="url(#clip27)" clip-rule="nonzero">
<g clip-path="url(#clip28)" clip-rule="evenodd">
<path style=" stroke:none;fill-rule:nonzero;fill:rgb(100%,43.528748%,53.726196%);fill-opacity:1;" d="M 61.007813 47.859375 L 75.09375 47.859375 L 75.09375 33.785156 L 61.007813 33.785156 Z M 61.007813 47.859375 "/>
</g>
</g>
<g clip-path="url(#clip29)" clip-rule="nonzero">
<g clip-path="url(#clip30)" clip-rule="evenodd">
<path style=" stroke:none;fill-rule:nonzero;fill:rgb(100%,43.528748%,53.726196%);fill-opacity:1;" d="M 49.460938 36.335938 L 63.542969 36.335938 L 63.542969 22.261719 L 49.460938 22.261719 Z M 49.460938 36.335938 "/>
</g>
</g>
<g clip-path="url(#clip31)" clip-rule="nonzero">
<g clip-path="url(#clip32)" clip-rule="evenodd">
<path style=" stroke:none;fill-rule:nonzero;fill:rgb(100%,43.528748%,53.726196%);fill-opacity:1;" d="M 61.007813 36.335938 L 75.09375 36.335938 L 75.09375 22.261719 L 61.007813 22.261719 Z M 61.007813 36.335938 "/>
</g>
</g>
<g clip-path="url(#clip33)" clip-rule="nonzero">
<g clip-path="url(#clip34)" clip-rule="evenodd">
<path style=" stroke:none;fill-rule:nonzero;fill:rgb(100%,43.528748%,53.726196%);fill-opacity:1;" d="M 72.558594 36.335938 L 86.640625 36.335938 L 86.640625 22.261719 L 72.558594 22.261719 Z M 72.558594 36.335938 "/>
</g>
</g>
<g clip-path="url(#clip35)" clip-rule="nonzero">
<g clip-path="url(#clip36)" clip-rule="evenodd">
<path style=" stroke:none;fill-rule:nonzero;fill:rgb(100%,43.528748%,53.726196%);fill-opacity:1;" d="M 61.007813 24.8125 L 75.09375 24.8125 L 75.09375 10.734375 L 61.007813 10.734375 Z M 61.007813 24.8125 "/>
</g>
</g>
<g clip-path="url(#clip37)" clip-rule="nonzero">
<g clip-path="url(#clip38)" clip-rule="evenodd">
<path style=" stroke:none;fill-rule:nonzero;fill:rgb(100%,43.528748%,53.726196%);fill-opacity:1;" d="M 72.558594 24.8125 L 86.640625 24.8125 L 86.640625 10.734375 L 72.558594 10.734375 Z M 72.558594 24.8125 "/>
</g>
</g>
</g>
</svg>
