<?xml version="1.0" encoding="UTF-8"?>
<svg xmlns="http://www.w3.org/2000/svg" xmlns:xlink="http://www.w3.org/1999/xlink" width="28pt" height="28pt" viewBox="0 0 28 28" version="1.1">
<defs>
<clipPath id="clip1">
  <path d="M 4 7 L 25 7 L 25 23 L 4 23 Z M 4 7 "/>
</clipPath>
<clipPath id="clip2">
  <path d="M 5.84375 8.976563 C 5.789063 8.976563 5.75 9.019531 5.75 9.070313 L 5.75 21.007813 C 5.75 21.058594 5.789063 21.101563 5.84375 21.101563 L 22.941406 21.101563 C 22.992188 21.101563 23.035156 21.058594 23.035156 21.007813 L 23.035156 9.070313 C 23.035156 9.019531 22.992188 8.976563 22.941406 8.976563 Z M 22.941406 22.851563 L 5.84375 22.851563 C 4.824219 22.851563 4 22.023438 4 21.007813 L 4 9.070313 C 4 8.054688 4.824219 7.226563 5.84375 7.226563 L 22.941406 7.226563 C 23.957031 7.226563 24.785156 8.054688 24.785156 9.070313 L 24.785156 21.007813 C 24.785156 22.023438 23.957031 22.851563 22.941406 22.851563 Z M 22.941406 22.851563 "/>
</clipPath>
<clipPath id="clip3">
  <path d="M 10 4 L 19 4 L 19 9 L 10 9 Z M 10 4 "/>
</clipPath>
<clipPath id="clip4">
  <path d="M 17.898438 8.894531 C 17.417969 8.894531 17.023438 8.503906 17.023438 8.019531 L 17.023438 5.84375 C 17.023438 5.792969 16.980469 5.75 16.933594 5.75 L 11.847656 5.75 C 11.796875 5.75 11.757813 5.789063 11.757813 5.84375 L 11.757813 8.019531 C 11.757813 8.503906 11.367188 8.894531 10.882813 8.894531 C 10.402344 8.894531 10.007813 8.503906 10.007813 8.019531 L 10.007813 5.84375 C 10.007813 4.828125 10.835938 4 11.847656 4 L 16.933594 4 C 17.949219 4 18.773438 4.828125 18.773438 5.84375 L 18.773438 8.019531 C 18.773438 8.503906 18.386719 8.894531 17.898438 8.894531 "/>
</clipPath>
<clipPath id="clip5">
  <path d="M 4 13 L 13 13 L 13 15 L 4 15 Z M 4 13 "/>
</clipPath>
<clipPath id="clip6">
  <path d="M 5.238281 13.390625 C 4.996094 13.390625 4.800781 13.585938 4.800781 13.828125 C 4.800781 14.070313 4.996094 14.265625 5.238281 14.265625 L 12.496094 14.265625 C 12.738281 14.265625 12.933594 14.070313 12.933594 13.828125 C 12.933594 13.585938 12.738281 13.390625 12.496094 13.390625 Z M 5.238281 13.390625 "/>
</clipPath>
<clipPath id="clip8">
  <path d="M 1.238281 0.390625 C 0.996094 0.390625 0.800781 0.585938 0.800781 0.828125 C 0.800781 1.070313 0.996094 1.265625 1.238281 1.265625 L 8.496094 1.265625 C 8.738281 1.265625 8.933594 1.070313 8.933594 0.828125 C 8.933594 0.585938 8.738281 0.390625 8.496094 0.390625 Z M 1.238281 0.390625 "/>
</clipPath>
<clipPath id="clip7">
  <rect width="9" height="2"/>
</clipPath>
<g id="surface4" clip-path="url(#clip7)">
<g clip-path="url(#clip8)" clip-rule="evenodd">
<rect x="0" y="0" width="9" height="2" style="fill:rgb(100%,100%,100%);fill-opacity:1;stroke:none;"/>
<rect x="0" y="0" width="9" height="2" style="fill:rgb(100%,100%,100%);fill-opacity:1;stroke:none;"/>
</g>
</g>
<clipPath id="clip9">
  <path d="M 15 13 L 24 13 L 24 15 L 15 15 Z M 15 13 "/>
</clipPath>
<clipPath id="clip10">
  <path d="M 23.246094 14.265625 L 15.984375 14.265625 C 15.742188 14.265625 15.546875 14.070313 15.546875 13.828125 C 15.546875 13.585938 15.742188 13.390625 15.984375 13.390625 L 23.246094 13.390625 C 23.484375 13.390625 23.683594 13.585938 23.683594 13.828125 C 23.683594 14.070313 23.484375 14.265625 23.246094 14.265625 "/>
</clipPath>
<clipPath id="clip11">
  <path d="M 12 12 L 17 12 L 17 17 L 12 17 Z M 12 12 "/>
</clipPath>
<clipPath id="clip12">
  <path d="M 13.617188 15.808594 L 15.164063 15.808594 L 15.164063 13.054688 L 13.617188 13.054688 Z M 15.601563 16.683594 L 13.179688 16.683594 C 12.9375 16.683594 12.742188 16.488281 12.742188 16.246094 L 12.742188 12.617188 C 12.742188 12.375 12.9375 12.179688 13.179688 12.179688 L 15.601563 12.179688 C 15.84375 12.179688 16.039063 12.375 16.039063 12.617188 L 16.039063 16.246094 C 16.039063 16.488281 15.84375 16.683594 15.601563 16.683594 Z M 15.601563 16.683594 "/>
</clipPath>
</defs>
<g id="surface1">
<g clip-path="url(#clip1)" clip-rule="nonzero">
<g clip-path="url(#clip2)" clip-rule="evenodd">
<path style=" stroke:none;fill-rule:nonzero;fill:rgb(100%,100%,100%);fill-opacity:1;" d="M -1 27.851563 L 29.785156 27.851563 L 29.785156 2.226563 L -1 2.226563 Z M -1 27.851563 "/>
</g>
</g>
<g clip-path="url(#clip3)" clip-rule="nonzero">
<g clip-path="url(#clip4)" clip-rule="evenodd">
<path style=" stroke:none;fill-rule:nonzero;fill:rgb(100%,100%,100%);fill-opacity:1;" d="M 5.007813 13.894531 L 23.773438 13.894531 L 23.773438 -1 L 5.007813 -1 Z M 5.007813 13.894531 "/>
</g>
</g>
<g clip-path="url(#clip5)" clip-rule="nonzero">
<g clip-path="url(#clip6)" clip-rule="evenodd">
<use xlink:href="#surface4" transform="matrix(1,0,0,1,4,13)"/>
</g>
</g>
<g clip-path="url(#clip9)" clip-rule="nonzero">
<g clip-path="url(#clip10)" clip-rule="evenodd">
<path style=" stroke:none;fill-rule:nonzero;fill:rgb(100%,100%,100%);fill-opacity:1;" d="M 10.546875 19.265625 L 28.683594 19.265625 L 28.683594 8.390625 L 10.546875 8.390625 Z M 10.546875 19.265625 "/>
</g>
</g>
<g clip-path="url(#clip11)" clip-rule="nonzero">
<g clip-path="url(#clip12)" clip-rule="evenodd">
<path style=" stroke:none;fill-rule:nonzero;fill:rgb(100%,100%,100%);fill-opacity:1;" d="M 7.742188 21.683594 L 21.039063 21.683594 L 21.039063 7.179688 L 7.742188 7.179688 Z M 7.742188 21.683594 "/>
</g>
</g>
</g>
</svg>
