<?xml version="1.0" encoding="UTF-8"?>
<svg xmlns="http://www.w3.org/2000/svg" xmlns:xlink="http://www.w3.org/1999/xlink" width="49pt" height="32pt" viewBox="0 0 49 32" version="1.1">
<defs>
<clipPath id="clip1">
  <path d="M 14 5 L 35.542969 5 L 35.542969 26.542969 L 14 26.542969 Z M 14 5 "/>
</clipPath>
<clipPath id="clip3">
  <path d="M 0 0 L 21.542969 0 L 21.542969 21.542969 L 0 21.542969 Z M 0 0 "/>
</clipPath>
<clipPath id="clip4">
  <path d="M 10.769531 8.582031 C 9.566406 8.582031 8.582031 9.5625 8.582031 10.769531 C 8.582031 11.976563 9.566406 12.960938 10.769531 12.960938 C 11.980469 12.960938 12.960938 11.976563 12.960938 10.769531 C 12.960938 9.5625 11.980469 8.582031 10.769531 8.582031 Z M 10.769531 14.792969 C 8.554688 14.792969 6.75 12.988281 6.75 10.769531 C 6.75 8.554688 8.554688 6.746094 10.769531 6.746094 C 12.988281 6.746094 14.792969 8.554688 14.792969 10.769531 C 14.792969 12.988281 12.988281 14.792969 10.769531 14.792969 Z M 9.867188 19.707031 L 11.675781 19.707031 L 11.675781 18.457031 C 11.675781 17.71875 12.207031 16.980469 12.910156 16.742188 L 13.539063 16.480469 C 13.714844 16.390625 13.988281 16.328125 14.265625 16.328125 C 14.761719 16.328125 15.238281 16.519531 15.566406 16.847656 L 16.453125 17.730469 L 17.730469 16.453125 L 16.84375 15.566406 C 16.320313 15.042969 16.175781 14.144531 16.507813 13.480469 L 16.765625 12.851563 C 16.976563 12.207031 17.714844 11.675781 18.457031 11.675781 L 19.707031 11.675781 L 19.707031 9.867188 L 18.457031 9.867188 C 17.714844 9.867188 16.976563 9.332031 16.742188 8.628906 L 16.480469 8.003906 C 16.175781 7.398438 16.320313 6.503906 16.84375 5.976563 L 17.730469 5.089844 L 16.453125 3.8125 L 15.566406 4.695313 C 15.050781 5.210938 14.136719 5.359375 13.480469 5.035156 L 12.851563 4.777344 C 12.207031 4.5625 11.675781 3.828125 11.675781 3.082031 L 11.675781 1.832031 L 9.867188 1.832031 L 9.867188 3.082031 C 9.867188 3.828125 9.335938 4.566406 8.628906 4.800781 L 8.003906 5.0625 C 7.828125 5.152344 7.554688 5.214844 7.277344 5.214844 C 6.777344 5.214844 6.300781 5.023438 5.976563 4.695313 L 5.09375 3.8125 L 3.8125 5.089844 L 4.695313 5.972656 C 5.21875 6.503906 5.367188 7.398438 5.035156 8.0625 L 4.78125 8.6875 C 4.566406 9.335938 3.828125 9.867188 3.085938 9.867188 L 1.832031 9.867188 L 1.832031 11.675781 L 3.085938 11.675781 C 3.828125 11.675781 4.566406 12.207031 4.800781 12.910156 L 5.0625 13.542969 C 5.367188 14.144531 5.21875 15.042969 4.699219 15.566406 L 3.8125 16.453125 L 5.09375 17.730469 L 5.976563 16.847656 C 6.484375 16.335938 7.40625 16.179688 8.0625 16.507813 L 8.691406 16.765625 C 9.347656 16.984375 9.867188 17.703125 9.867188 18.457031 Z M 11.949219 21.542969 L 9.59375 21.542969 C 8.734375 21.542969 8.035156 20.839844 8.035156 19.984375 L 8.035156 18.457031 L 7.304688 18.175781 L 6.191406 19.222656 C 5.605469 19.808594 4.574219 19.808594 3.988281 19.222656 L 2.320313 17.554688 C 2.027344 17.261719 1.867188 16.871094 1.867188 16.453125 C 1.867188 16.03125 2.027344 15.640625 2.324219 15.347656 L 3.398438 14.273438 L 3.085938 13.550781 L 1.558594 13.507813 C 0.699219 13.507813 0 12.808594 0 11.949219 L 0 9.59375 C 0 8.734375 0.699219 8.03125 1.558594 8.03125 L 3.085938 8.03125 L 3.367188 7.304688 L 2.320313 6.191406 C 2.027344 5.902344 1.867188 5.507813 1.867188 5.089844 C 1.867188 4.671875 2.027344 4.28125 2.324219 3.988281 L 3.988281 2.320313 C 4.574219 1.734375 5.605469 1.734375 6.195313 2.320313 L 7.269531 3.398438 L 7.988281 3.082031 L 8.035156 1.558594 C 8.035156 0.699219 8.734375 0 9.59375 0 L 11.949219 0 C 12.808594 0 13.511719 0.699219 13.511719 1.558594 L 13.511719 3.082031 L 14.242188 3.367188 L 15.347656 2.320313 C 15.644531 2.027344 16.035156 1.867188 16.453125 1.867188 C 16.867188 1.863281 17.257813 2.027344 17.554688 2.320313 L 19.222656 3.988281 C 19.511719 4.28125 19.675781 4.671875 19.675781 5.089844 C 19.675781 5.507813 19.511719 5.902344 19.21875 6.195313 L 18.140625 7.269531 L 18.457031 7.988281 L 19.984375 8.03125 C 20.84375 8.03125 21.542969 8.734375 21.542969 9.59375 L 21.542969 11.949219 C 21.542969 12.808594 20.84375 13.507813 19.984375 13.507813 L 18.457031 13.507813 L 18.175781 14.242188 L 19.21875 15.351563 C 19.511719 15.640625 19.675781 16.03125 19.675781 16.453125 C 19.675781 16.871094 19.511719 17.261719 19.21875 17.554688 L 17.554688 19.222656 C 16.960938 19.808594 15.941406 19.808594 15.351563 19.222656 L 14.269531 18.144531 L 13.554688 18.460938 L 13.511719 19.984375 C 13.511719 20.839844 12.808594 21.542969 11.949219 21.542969 Z M 11.949219 21.542969 "/>
</clipPath>
<clipPath id="clip2">
  <rect width="22" height="22"/>
</clipPath>
<g id="surface4" clip-path="url(#clip2)">
<g clip-path="url(#clip3)" clip-rule="nonzero">
<g clip-path="url(#clip4)" clip-rule="evenodd">
<rect x="0" y="0" width="22" height="22" style="fill:rgb(50.98114%,50.98114%,50.98114%);fill-opacity:1;stroke:none;"/>
</g>
</g>
</g>
</defs>
<g id="surface1">
<g clip-path="url(#clip1)" clip-rule="nonzero">
<use xlink:href="#surface4" transform="matrix(1,0,0,1,14,5)"/>
</g>
</g>
</svg>
