<?xml version="1.0" encoding="UTF-8"?>
<svg xmlns="http://www.w3.org/2000/svg" xmlns:xlink="http://www.w3.org/1999/xlink" width="49pt" height="32pt" viewBox="0 0 49 32" version="1.1">
<defs>
<clipPath id="clip1">
  <path d="M 14 5 L 35.695313 5 L 35.695313 26.695313 L 14 26.695313 Z M 14 5 "/>
</clipPath>
<clipPath id="clip3">
  <path d="M 0 0 L 21.695313 0 L 21.695313 21.695313 L 0 21.695313 Z M 0 0 "/>
</clipPath>
<clipPath id="clip4">
  <path d="M 8.601563 19.859375 L 13.089844 19.859375 L 13.089844 14.007813 C 13.089844 13.5 13.5 13.089844 14.007813 13.089844 L 19.859375 13.089844 L 19.859375 8.605469 L 14.007813 8.605469 C 13.5 8.605469 13.089844 8.195313 13.089844 7.6875 L 13.089844 1.832031 L 8.601563 1.832031 L 8.601563 7.6875 C 8.601563 8.195313 8.191406 8.605469 7.6875 8.605469 L 1.832031 8.605469 L 1.832031 13.089844 L 7.6875 13.089844 C 8.191406 13.089844 8.601563 13.5 8.601563 14.007813 Z M 14.007813 21.695313 L 7.6875 21.695313 C 7.179688 21.695313 6.769531 21.285156 6.769531 20.777344 L 6.769531 14.921875 L 0.917969 14.921875 C 0.410156 14.921875 0 14.511719 0 14.007813 L 0 7.6875 C 0 7.179688 0.410156 6.769531 0.917969 6.769531 L 6.769531 6.769531 L 6.769531 0.917969 C 6.769531 0.410156 7.179688 0 7.6875 0 L 14.007813 0 C 14.511719 0 14.921875 0.410156 14.921875 0.917969 L 14.921875 6.769531 L 20.777344 6.769531 C 21.285156 6.769531 21.695313 7.179688 21.695313 7.6875 L 21.695313 14.007813 C 21.695313 14.511719 21.285156 14.921875 20.777344 14.921875 L 14.921875 14.921875 L 14.921875 20.777344 C 14.921875 21.285156 14.511719 21.695313 14.007813 21.695313 Z M 14.007813 21.695313 "/>
</clipPath>
<clipPath id="clip2">
  <rect width="22" height="22"/>
</clipPath>
<g id="surface4" clip-path="url(#clip2)">
<g clip-path="url(#clip3)" clip-rule="nonzero">
<g clip-path="url(#clip4)" clip-rule="evenodd">
<rect x="0" y="0" width="22" height="22" style="fill:rgb(50.98114%,50.98114%,50.98114%);fill-opacity:1;stroke:none;"/>
</g>
</g>
</g>
</defs>
<g id="surface1">
<g clip-path="url(#clip1)" clip-rule="nonzero">
<use xlink:href="#surface4" transform="matrix(1,0,0,1,14,5)"/>
</g>
</g>
</svg>
