<?xml version="1.0" encoding="UTF-8"?>
<svg xmlns="http://www.w3.org/2000/svg" xmlns:xlink="http://www.w3.org/1999/xlink" width="28pt" height="28pt" viewBox="0 0 28 28" version="1.1">
<defs>
<clipPath id="clip1">
  <path d="M 3 4.882813 L 25.226563 4.882813 L 25.226563 24.164063 L 3 24.164063 Z M 3 4.882813 "/>
</clipPath>
<clipPath id="clip3">
  <path d="M 0 0.882813 L 22.226563 0.882813 L 22.226563 20.164063 L 0 20.164063 Z M 0 0.882813 "/>
</clipPath>
<clipPath id="clip4">
  <path d="M 6.410156 2.878906 C 5.230469 2.882813 4.160156 3.347656 3.335938 4.183594 C 2.394531 5.144531 1.863281 6.511719 1.882813 7.9375 C 1.886719 8.472656 1.972656 8.992188 2.128906 9.476563 C 2.316406 10.28125 3.316406 12.0625 8.144531 15.820313 C 9.097656 16.558594 10.519531 17.554688 11.28125 18.082031 C 12.082031 17.53125 13.109375 16.742188 14.292969 15.765625 C 19.015625 11.898438 19.96875 10.078125 20.117188 9.335938 C 20.28125 8.761719 20.351563 8.242188 20.347656 7.707031 C 20.3125 4.980469 18.289063 2.765625 15.835938 2.765625 C 15.832031 2.765625 15.746094 2.765625 15.742188 2.765625 C 14.144531 2.789063 12.703125 3.652344 11.890625 5.082031 C 11.726563 5.375 11.421875 5.554688 11.085938 5.558594 C 10.773438 5.558594 10.441406 5.390625 10.269531 5.105469 C 9.425781 3.710938 7.984375 2.878906 6.410156 2.878906 M 11.269531 20.164063 C 11.113281 20.164063 10.957031 20.125 10.8125 20.046875 C 10.773438 20.023438 10.734375 19.996094 10.695313 19.96875 L 10.402344 19.765625 C 9.707031 19.277344 8.074219 18.144531 6.992188 17.308594 C 2.839844 14.078125 0.71875 11.746094 0.316406 9.976563 C 0.125 9.390625 0.0078125 8.6875 0 7.960938 C -0.0234375 6.039063 0.703125 4.179688 1.996094 2.863281 C 3.171875 1.667969 4.714844 1.003906 6.34375 1 C 8.179688 1 9.851563 1.742188 11.054688 3.035156 C 12.234375 1.695313 13.902344 0.910156 15.714844 0.886719 L 15.835938 0.882813 C 19.3125 0.882813 22.179688 3.933594 22.226563 7.683594 C 22.238281 8.40625 22.140625 9.113281 21.941406 9.785156 C 21.605469 11.484375 19.488281 13.941406 15.488281 17.21875 C 13.953125 18.484375 12.699219 19.425781 11.773438 20.015625 C 11.621094 20.113281 11.441406 20.164063 11.269531 20.164063 "/>
</clipPath>
<clipPath id="clip2">
  <rect width="23" height="21"/>
</clipPath>
<g id="surface4" clip-path="url(#clip2)">
<g clip-path="url(#clip3)" clip-rule="nonzero">
<g clip-path="url(#clip4)" clip-rule="evenodd">
<rect x="0" y="0" width="23" height="21" style="fill:rgb(100%,100%,100%);fill-opacity:1;stroke:none;"/>
</g>
</g>
</g>
<clipPath id="clip5">
  <path d="M 18 8 L 22 8 L 22 14 L 18 14 Z M 18 8 "/>
</clipPath>
<clipPath id="clip6">
  <path d="M 21.273438 13.433594 C 21.242188 13.433594 21.207031 13.429688 21.175781 13.425781 C 20.921875 13.371094 20.757813 13.121094 20.8125 12.867188 L 20.878906 12.597656 C 20.960938 12.316406 21 12.03125 20.996094 11.738281 C 20.976563 10.269531 20 9.117188 18.769531 9.117188 C 18.511719 9.117188 18.300781 8.90625 18.300781 8.648438 C 18.300781 8.386719 18.507813 8.179688 18.769531 8.179688 C 20.519531 8.179688 21.910156 9.734375 21.933594 11.722656 C 21.941406 12.109375 21.890625 12.492188 21.78125 12.859375 L 21.734375 13.058594 C 21.6875 13.28125 21.492188 13.433594 21.273438 13.433594 "/>
</clipPath>
</defs>
<g id="surface1">
<g clip-path="url(#clip1)" clip-rule="nonzero">
<use xlink:href="#surface4" transform="matrix(1,0,0,1,3,4)"/>
</g>
<g clip-path="url(#clip5)" clip-rule="nonzero">
<g clip-path="url(#clip6)" clip-rule="evenodd">
<path style=" stroke:none;fill-rule:nonzero;fill:rgb(100%,100%,100%);fill-opacity:1;" d="M 13.300781 18.433594 L 26.9375 18.433594 L 26.9375 3.179688 L 13.300781 3.179688 Z M 13.300781 18.433594 "/>
</g>
</g>
</g>
</svg>
